<?xml version="1.0" standalone="no"?><!DOCTYPE svg PUBLIC "-//W3C//DTD SVG 1.1//EN" "http://www.w3.org/Graphics/SVG/1.1/DTD/svg11.dtd"><svg t="1649675713987" class="icon" viewBox="0 0 1024 1024" version="1.1" xmlns="http://www.w3.org/2000/svg" p-id="39143" xmlns:xlink="http://www.w3.org/1999/xlink" width="200" height="200"><defs><style type="text/css">@font-face { font-family: feedback-iconfont; src: url("//at.alicdn.com/t/font_1031158_u69w8yhxdu.woff2?t=1630033759944") format("woff2"), url("//at.alicdn.com/t/font_1031158_u69w8yhxdu.woff?t=1630033759944") format("woff"), url("//at.alicdn.com/t/font_1031158_u69w8yhxdu.ttf?t=1630033759944") format("truetype"); }
</style></defs><path d="M962.680471 246.302118h-20.419765v-102.4c0-33.671529-24.756706-73.667765-54.964706-88.756706 0 0-108.724706-54.362353-374.663529-54.362353C246.663529 0.783059 137.758118 55.115294 137.758118 55.115294c-30.208 15.088941-54.964706 55.115294-54.964706 88.756706v102.4h-20.419765a61.560471 61.560471 0 0 0-61.44 61.289412v61.409882a61.560471 61.560471 0 0 0 61.44 61.44h20.419765v419.418353c0.120471 25.961412 16.534588 49.091765 40.990117 57.825882v34.213647a81.829647 81.829647 0 1 0 163.689412 0v-30.629647H737.581176v30.629647a81.829647 81.829647 0 0 0 163.689412 0v-34.213647a61.560471 61.560471 0 0 0 40.96-57.825882V430.381176h20.449883a61.560471 61.560471 0 0 0 61.44-61.44v-61.379764a61.560471 61.560471 0 0 0-61.44-61.289412z m-654.757647-143.269647a20.570353 20.570353 0 0 1 20.449882-20.419765h368.338823a20.570353 20.570353 0 0 1 20.449883 20.419765v40.869647c0 11.294118-9.125647 20.48-20.449883 20.570353h-368.338823a20.570353 20.570353 0 0 1-20.449882-20.570353V103.002353zM215.883294 829.44a51.2 51.2 0 1 1 0-102.4 51.2 51.2 0 0 1 0 102.4z m593.317647 0a51.2 51.2 0 1 1 0-102.4 51.2 51.2 0 0 1 0 102.4z m51.2-235.309176a20.570353 20.570353 0 0 1-20.419765 20.419764H185.223529a20.570353 20.570353 0 0 1-20.540235-20.419764V266.721882a20.570353 20.570353 0 0 1 20.570353-20.419764h654.757647a20.570353 20.570353 0 0 1 20.389647 20.419764v327.378824z" p-id="39144" fill="#a34202"></path></svg>