<?xml version="1.0" standalone="no"?><!DOCTYPE svg PUBLIC "-//W3C//DTD SVG 1.1//EN" "http://www.w3.org/Graphics/SVG/1.1/DTD/svg11.dtd"><svg t="1649595000300" class="icon" viewBox="0 0 1024 1024" version="1.1" xmlns="http://www.w3.org/2000/svg" p-id="2194" xmlns:xlink="http://www.w3.org/1999/xlink" width="200" height="200"><defs><style type="text/css">@font-face { font-family: feedback-iconfont; src: url("//at.alicdn.com/t/font_1031158_u69w8yhxdu.woff2?t=1630033759944") format("woff2"), url("//at.alicdn.com/t/font_1031158_u69w8yhxdu.woff?t=1630033759944") format("woff"), url("//at.alicdn.com/t/font_1031158_u69w8yhxdu.ttf?t=1630033759944") format("truetype"); }
</style></defs><path d="M243.9475 742.963279c-2.434445 0-5.195326 0-7.954159 0-29.636994 0-59.276035 0.027629-88.912006-0.013303-14.359033-0.020466-19.608593-5.256724-19.61371-19.545148-0.021489-61.5928-0.084934-123.18867 0.017396-184.78147 0.081864-49.595558 37.037545-87.599104 86.7252-89.25379 9.974166-0.330528 19.96982-0.048095 30.797423-0.048095 0-3.817955 0-6.831592 0-9.845229-0.001023-78.346369-0.010233-156.690692 0.00307-235.036038 0.004093-31.232328 17.641799-49.0266 48.705282-49.034786 99.993388-0.024559 199.9878-0.176009 299.980165 0.096191 31.490202 0.085958 58.867736 11.54801 81.412195 33.609469 21.918195 21.447475 43.593867 43.149752 65.065901 65.044412 21.900799 22.327518 33.123398 49.502437 33.58184 80.665181 0.51677 35.040051 0.119727 70.097498 0.119727 105.144712 0 2.786463 0 5.572926 0 9.302877 10.082636 0 19.528775-0.159636 28.968775 0.026606 42.015929 0.827855 76.737732 27.977191 86.005816 67.696822 1.795902 7.689123 2.436492 15.804964 2.462075 23.727401 0.196475 60.822251 0.125867 121.642454 0.099261 182.461635-0.00614 14.368242-5.313006 19.74367-19.529799 19.765159-29.636994 0.048095-59.276035 0.01535-88.912006 0.01535-2.769067 0-5.536087 0-9.097192 0 0 23.845081-0.019443 46.961568 0.010233 70.076008 0.013303 10.812253-2.097778 20.954241-8.857738 29.745465-9.491165 12.340049-22.081924 17.798365-37.548174 17.767666-59.015092-0.115634-118.03223-0.046049-177.047322-0.046049-85.560678 0-171.123402 0.004093-256.68408-0.00307-31.162744-0.002047-48.697095-17.626449-48.741098-48.929386-0.030699-22.162766-0.080841-44.323485-0.151449-66.485227C244.850056 744.639454 244.484735 744.193293 243.9475 742.963279L243.9475 742.963279zM714.799334 331.559395c-3.136433 0-5.898337 0-8.66024 0-20.61962-0.001023-41.238216-0.017396-61.857836 0.004093-15.653515 0.016373-28.582989-5.586229-38.115086-18.302855-6.649444-8.871041-8.55791-19.077497-8.543583-29.861098 0.027629-22.8668 0.008186-45.732577 0.008186-68.940139-98.252745 0-195.764616 0-293.408493 0 0 97.960079 0 195.472973 0 292.957215 137.202848 0 273.881764 0 410.578076 0C714.799334 448.64609 714.799334 390.491599 714.799334 331.559395L714.799334 331.559395zM714.81059 684.736133c-137.278573 0-273.964652 0-410.479839 0 0 39.295981 0 78.041424 0 116.714212 137.122007 0 273.612635 0 410.479839 0C714.81059 762.439866 714.81059 723.876572 714.81059 684.736133L714.81059 684.736133zM803.223223 507.894496c-16.072047 0.004093-29.467125 13.548574-29.328979 29.65746 0.134053 15.796778 13.300934 29.057803 29.02608 29.232788 15.975856 0.179079 29.673833-13.298887 29.77821-29.302373C832.802912 521.401114 819.342342 507.891426 803.223223 507.894496L803.223223 507.894496z" p-id="2195"></path></svg>