<?xml version="1.0" standalone="no"?><!DOCTYPE svg PUBLIC "-//W3C//DTD SVG 1.1//EN" "http://www.w3.org/Graphics/SVG/1.1/DTD/svg11.dtd"><svg t="1649584833776" class="icon" viewBox="0 0 1024 1024" version="1.1" xmlns="http://www.w3.org/2000/svg" p-id="28615" xmlns:xlink="http://www.w3.org/1999/xlink" width="200" height="200"><defs><style type="text/css">@font-face { font-family: feedback-iconfont; src: url("//at.alicdn.com/t/font_1031158_u69w8yhxdu.woff2?t=1630033759944") format("woff2"), url("//at.alicdn.com/t/font_1031158_u69w8yhxdu.woff?t=1630033759944") format("woff"), url("//at.alicdn.com/t/font_1031158_u69w8yhxdu.ttf?t=1630033759944") format("truetype"); }
</style></defs><path d="M512 810.666667a298.666667 298.666667 0 0 1 0-597.333334h405.333333a85.333333 85.333333 0 0 1 85.333334 85.333334v426.666666a85.333333 85.333333 0 0 1-85.333334 85.333334z" fill="#35DC86" p-id="28616"></path><path d="M277.333333 213.333333h234.666667a298.666667 298.666667 0 0 0 0 597.333334H106.666667a85.333333 85.333333 0 0 1-85.333334-85.333334V298.666667a85.333333 85.333333 0 0 1 85.333334-85.333334z" fill="#35DC86" p-id="28617"></path><path d="M512 512m-298.666667 0a298.666667 298.666667 0 1 0 597.333334 0 298.666667 298.666667 0 1 0-597.333334 0Z" fill="#F1F2F2" p-id="28618"></path><path d="M917.333333 192H512a320 320 0 0 0-159.530667 597.333333H106.666667a64 64 0 0 1-64-64V298.666667a64 64 0 0 1 64-64h170.666666a21.333333 21.333333 0 0 0 0-42.666667H106.666667a106.794667 106.794667 0 0 0-106.666667 106.666667v426.666666a106.794667 106.794667 0 0 0 106.666667 106.666667h810.666666a106.794667 106.794667 0 0 0 106.666667-106.666667V298.666667a106.794667 106.794667 0 0 0-106.666667-106.666667z m64 533.333333a64 64 0 0 1-64 64H671.530667a320 320 0 0 0 71.104-499.2 21.333333 21.333333 0 1 0-30.762667 29.568A277.333333 277.333333 0 1 1 512 234.666667h405.333333a64 64 0 0 1 64 64z" fill="#474C54" p-id="28619"></path><path d="M554.666667 362.666667h-21.333334v-21.333334a21.333333 21.333333 0 0 0-42.666666 0v21.333334h-21.333334a64 64 0 0 0-64 64v42.666666a64 64 0 0 0 64 64h85.333334a21.333333 21.333333 0 0 1 21.333333 21.333334v42.666666a21.333333 21.333333 0 0 1-21.333333 21.333334h-85.333334a21.333333 21.333333 0 0 1-21.333333-21.333334v-21.333333a21.333333 21.333333 0 0 0-42.666667 0v21.333333a64 64 0 0 0 64 64h21.333334v21.333334a21.333333 21.333333 0 0 0 42.666666 0v-21.333334h21.333334a64 64 0 0 0 64-64v-42.666666a64 64 0 0 0-64-64h-85.333334a21.333333 21.333333 0 0 1-21.333333-21.333334v-42.666666a21.333333 21.333333 0 0 1 21.333333-21.333334h85.333334a21.333333 21.333333 0 0 1 21.333333 21.333334v21.333333a21.333333 21.333333 0 0 0 42.666667 0v-21.333333a64 64 0 0 0-64-64zM106.666667 490.666667a21.333333 21.333333 0 0 0 0 42.666666h21.333333a21.333333 21.333333 0 0 0 0-42.666666zM917.333333 490.666667h-21.333333a21.333333 21.333333 0 0 0 0 42.666666h21.333333a21.333333 21.333333 0 0 0 0-42.666666z" fill="#474C54" p-id="28620"></path></svg>