<?xml version="1.0" standalone="no"?><!DOCTYPE svg PUBLIC "-//W3C//DTD SVG 1.1//EN" "http://www.w3.org/Graphics/SVG/1.1/DTD/svg11.dtd"><svg t="1649675660444" class="icon" viewBox="0 0 1024 1024" version="1.1" xmlns="http://www.w3.org/2000/svg" p-id="36271" xmlns:xlink="http://www.w3.org/1999/xlink" width="200" height="200"><defs><style type="text/css">@font-face { font-family: feedback-iconfont; src: url("//at.alicdn.com/t/font_1031158_u69w8yhxdu.woff2?t=1630033759944") format("woff2"), url("//at.alicdn.com/t/font_1031158_u69w8yhxdu.woff?t=1630033759944") format("woff"), url("//at.alicdn.com/t/font_1031158_u69w8yhxdu.ttf?t=1630033759944") format("truetype"); }
</style></defs><path d="M675.84 512l203.4688 117.4528a81.92 81.92 0 0 1-81.92 141.9264L593.92 653.9264V888.832a81.92 81.92 0 1 1-163.84 0V653.9264L226.6112 771.3792a81.92 81.92 0 1 1-81.92-141.9264L348.16 512 144.6912 394.5472a81.92 81.92 0 0 1 81.92-141.9264L430.08 370.0736V135.168a81.92 81.92 0 1 1 163.84 0v234.9056l203.4688-117.4528a81.92 81.92 0 1 1 81.92 141.9264L675.84 512z" p-id="36272" fill="#1296db"></path></svg>