<?xml version="1.0" standalone="no"?><!DOCTYPE svg PUBLIC "-//W3C//DTD SVG 1.1//EN" "http://www.w3.org/Graphics/SVG/1.1/DTD/svg11.dtd"><svg t="1649675777478" class="icon" viewBox="0 0 1024 1024" version="1.1" xmlns="http://www.w3.org/2000/svg" p-id="41247" xmlns:xlink="http://www.w3.org/1999/xlink" width="200" height="200"><defs><style type="text/css">@font-face { font-family: feedback-iconfont; src: url("//at.alicdn.com/t/font_1031158_u69w8yhxdu.woff2?t=1630033759944") format("woff2"), url("//at.alicdn.com/t/font_1031158_u69w8yhxdu.woff?t=1630033759944") format("woff"), url("//at.alicdn.com/t/font_1031158_u69w8yhxdu.ttf?t=1630033759944") format("truetype"); }
</style></defs><path d="M0 206.4384c0-44.7488 10.752-80.7936 32.3584-108.032 21.504-27.2384 50.688-48.0256 87.3472-62.3616C158.0032 21.6064 201.9328 11.9808 251.392 7.168 300.8512 2.3552 353.5872 0 409.3952 0s108.544 2.3552 158.0032 7.168c49.4592 4.8128 93.3888 14.4384 131.6864 28.7744 36.7616 14.4384 65.8432 35.2256 87.3472 62.3616 21.504 27.2384 32.3584 63.2832 32.3584 108.032l0 537.6c0 23.9616-4.8128 46.7968-14.336 68.4032C794.9312 834.048 782.1312 852.8896 766.1568 868.7616 748.6464 884.8384 729.088 897.6384 707.4816 907.1616 685.9776 916.7872 663.2448 921.6 639.2832 921.6l76.5952 76.8 0 26.4192L102.912 1024.8192 102.912 998.4 179.6096 921.6C155.648 921.6 132.9152 916.7872 111.3088 907.1616c-21.504-9.6256-41.0624-22.4256-58.6752-38.4C36.7616 852.8896 23.9616 834.048 14.336 812.4416 4.8128 790.8352 0 768 0 744.0384L0 206.4384zM715.8784 206.4384 102.912 206.4384 102.912 460.8l612.9664 0L715.8784 206.4384zM409.3952 820.8384c14.336 0 27.5456-2.7648 39.5264-8.3968C460.9024 806.8096 471.6544 799.232 481.28 789.6064c9.6256-9.6256 17.2032-20.3776 22.7328-32.3584 5.632-11.9808 8.3968-25.1904 8.3968-39.6288 0-14.4384-2.7648-27.648-8.3968-39.6288C498.3808 666.0096 490.8032 655.1552 481.28 645.632 471.6544 636.0064 460.9024 628.4288 448.9216 622.7968 436.9408 617.1648 423.8336 614.4 409.3952 614.4c-14.336 0-27.5456 2.7648-39.5264 8.3968C357.9904 628.4288 347.136 636.0064 337.6128 645.632 327.9872 655.1552 320.4096 666.0096 314.88 677.9904 309.248 689.9712 306.4832 703.1808 306.4832 717.6192c0 14.4384 2.7648 27.5456 8.3968 39.6288 5.632 11.9808 13.2096 22.8352 22.7328 32.3584C347.136 799.232 357.9904 806.8096 369.9712 812.4416 381.8496 818.0736 395.0592 820.8384 409.3952 820.8384z" p-id="41248" fill="#1296db"></path></svg>